G04 #@! TF.GenerationSoftware,KiCad,Pcbnew,(6.0.10)*
G04 #@! TF.CreationDate,2023-03-12T23:34:18-05:00*
G04 #@! TF.ProjectId,ReverseVoltageProtection_Breakout,52657665-7273-4655-966f-6c7461676550,rev?*
G04 #@! TF.SameCoordinates,Original*
G04 #@! TF.FileFunction,Copper,L1,Top*
G04 #@! TF.FilePolarity,Positive*
%FSLAX46Y46*%
G04 Gerber Fmt 4.6, Leading zero omitted, Abs format (unit mm)*
G04 Created by KiCad (PCBNEW (6.0.10)) date 2023-03-12 23:34:18*
%MOMM*%
%LPD*%
G01*
G04 APERTURE LIST*
G04 Aperture macros list*
%AMRoundRect*
0 Rectangle with rounded corners*
0 $1 Rounding radius*
0 $2 $3 $4 $5 $6 $7 $8 $9 X,Y pos of 4 corners*
0 Add a 4 corners polygon primitive as box body*
4,1,4,$2,$3,$4,$5,$6,$7,$8,$9,$2,$3,0*
0 Add four circle primitives for the rounded corners*
1,1,$1+$1,$2,$3*
1,1,$1+$1,$4,$5*
1,1,$1+$1,$6,$7*
1,1,$1+$1,$8,$9*
0 Add four rect primitives between the rounded corners*
20,1,$1+$1,$2,$3,$4,$5,0*
20,1,$1+$1,$4,$5,$6,$7,0*
20,1,$1+$1,$6,$7,$8,$9,0*
20,1,$1+$1,$8,$9,$2,$3,0*%
G04 Aperture macros list end*
G04 #@! TA.AperFunction,ComponentPad*
%ADD10O,3.000000X5.100000*%
G04 #@! TD*
G04 #@! TA.AperFunction,SMDPad,CuDef*
%ADD11RoundRect,0.237500X-0.237500X0.250000X-0.237500X-0.250000X0.237500X-0.250000X0.237500X0.250000X0*%
G04 #@! TD*
G04 #@! TA.AperFunction,SMDPad,CuDef*
%ADD12R,1.200000X2.200000*%
G04 #@! TD*
G04 #@! TA.AperFunction,SMDPad,CuDef*
%ADD13R,5.800000X6.400000*%
G04 #@! TD*
G04 #@! TA.AperFunction,SMDPad,CuDef*
%ADD14RoundRect,0.150000X-0.150000X0.512500X-0.150000X-0.512500X0.150000X-0.512500X0.150000X0.512500X0*%
G04 #@! TD*
G04 #@! TA.AperFunction,Conductor*
%ADD15C,1.270000*%
G04 #@! TD*
G04 APERTURE END LIST*
D10*
X114554000Y-117560000D03*
X114554000Y-109686000D03*
D11*
X91440000Y-118618000D03*
X91440000Y-120443000D03*
D12*
X96646500Y-115926000D03*
D13*
X94366500Y-109626000D03*
D12*
X94366500Y-115926000D03*
X92086500Y-115926000D03*
D14*
X95316500Y-118623500D03*
X93416500Y-118623500D03*
X94366500Y-120898500D03*
D10*
X87503000Y-117560000D03*
X87503000Y-109686000D03*
D15*
X92583000Y-118618000D02*
X92588500Y-118623500D01*
X91440000Y-118618000D02*
X92583000Y-118618000D01*
X92588500Y-118623500D02*
X93416500Y-118623500D01*
X92086500Y-118121500D02*
X92588500Y-118623500D01*
X92086500Y-115926000D02*
X92086500Y-118121500D01*
X96006500Y-118623500D02*
X95316500Y-118623500D01*
X96646500Y-117983500D02*
X96006500Y-118623500D01*
X96646500Y-115926000D02*
X96646500Y-117983500D01*
X94366500Y-115926000D02*
X94366500Y-109626000D01*
G04 #@! TA.AperFunction,Conductor*
G36*
X117289621Y-114833502D02*
G01*
X117336114Y-114887158D01*
X117347500Y-114939500D01*
X117347500Y-121793500D01*
X117327498Y-121861621D01*
X117273842Y-121908114D01*
X117221500Y-121919500D01*
X112399500Y-121919500D01*
X112331379Y-121899498D01*
X112284886Y-121845842D01*
X112273500Y-121793500D01*
X112273500Y-114939500D01*
X112293502Y-114871379D01*
X112347158Y-114824886D01*
X112399500Y-114813500D01*
X117221500Y-114813500D01*
X117289621Y-114833502D01*
G37*
G04 #@! TD.AperFunction*
G04 #@! TA.AperFunction,Conductor*
G36*
X90931554Y-114579502D02*
G01*
X90978047Y-114633158D01*
X90988151Y-114703432D01*
X90986915Y-114709921D01*
X90984755Y-114715684D01*
X90978000Y-114777866D01*
X90978000Y-115620447D01*
X90972332Y-115657811D01*
X90963196Y-115687234D01*
X90943000Y-115857874D01*
X90943000Y-117509665D01*
X90922998Y-117577786D01*
X90872730Y-117622670D01*
X90839963Y-117638829D01*
X90835337Y-117642283D01*
X90835336Y-117642284D01*
X90676195Y-117761120D01*
X90671571Y-117764573D01*
X90667657Y-117768807D01*
X90667655Y-117768809D01*
X90545691Y-117900750D01*
X90528914Y-117918899D01*
X90416769Y-118096638D01*
X90338892Y-118291837D01*
X90337767Y-118297494D01*
X90337765Y-118297500D01*
X90299019Y-118492293D01*
X90297892Y-118497960D01*
X90295141Y-118708102D01*
X90330732Y-118915228D01*
X90403472Y-119112399D01*
X90510926Y-119293012D01*
X90649494Y-119451019D01*
X90654024Y-119454590D01*
X90797093Y-119567376D01*
X90814537Y-119581128D01*
X90819653Y-119583819D01*
X90819655Y-119583821D01*
X90965309Y-119660453D01*
X91000527Y-119678982D01*
X91201234Y-119741304D01*
X91206969Y-119741983D01*
X91206970Y-119741983D01*
X91233687Y-119745145D01*
X91371874Y-119761500D01*
X92458445Y-119761500D01*
X92476524Y-119762804D01*
X92528397Y-119770325D01*
X92610554Y-119767097D01*
X92615501Y-119767000D01*
X93060194Y-119767000D01*
X93095344Y-119772003D01*
X93162669Y-119791562D01*
X93169079Y-119792067D01*
X93169082Y-119792067D01*
X93197542Y-119794307D01*
X93197550Y-119794307D01*
X93199998Y-119794500D01*
X93580373Y-119794500D01*
X93648494Y-119814502D01*
X93694987Y-119868158D01*
X93705091Y-119938432D01*
X93688828Y-119984636D01*
X93607355Y-120122399D01*
X93560938Y-120282169D01*
X93558000Y-120319498D01*
X93558000Y-121477502D01*
X93560938Y-121514831D01*
X93607355Y-121674601D01*
X93611392Y-121681427D01*
X93639740Y-121729361D01*
X93657200Y-121798177D01*
X93634683Y-121865508D01*
X93579339Y-121909978D01*
X93531287Y-121919500D01*
X84962500Y-121919500D01*
X84894379Y-121899498D01*
X84847886Y-121845842D01*
X84836500Y-121793500D01*
X84836500Y-114685500D01*
X84856502Y-114617379D01*
X84910158Y-114570886D01*
X84962500Y-114559500D01*
X90863433Y-114559500D01*
X90931554Y-114579502D01*
G37*
G04 #@! TD.AperFunction*
G04 #@! TA.AperFunction,Conductor*
G36*
X97732121Y-105176502D02*
G01*
X97778614Y-105230158D01*
X97790000Y-105282500D01*
X97790000Y-113920000D01*
X97769998Y-113988121D01*
X97716342Y-114034614D01*
X97664000Y-114046000D01*
X84962500Y-114046000D01*
X84894379Y-114025998D01*
X84847886Y-113972342D01*
X84836500Y-113920000D01*
X84836500Y-105282500D01*
X84856502Y-105214379D01*
X84910158Y-105167886D01*
X84962500Y-105156500D01*
X97664000Y-105156500D01*
X97732121Y-105176502D01*
G37*
G04 #@! TD.AperFunction*
G04 #@! TA.AperFunction,Conductor*
G36*
X117289621Y-105176502D02*
G01*
X117336114Y-105230158D01*
X117347500Y-105282500D01*
X117347500Y-114174000D01*
X117327498Y-114242121D01*
X117273842Y-114288614D01*
X117221500Y-114300000D01*
X111760000Y-114300000D01*
X111760000Y-121793500D01*
X111739998Y-121861621D01*
X111686342Y-121908114D01*
X111634000Y-121919500D01*
X95503000Y-121919500D01*
X95434879Y-121899498D01*
X95388386Y-121845842D01*
X95377000Y-121793500D01*
X95377000Y-117368206D01*
X95397002Y-117300085D01*
X95402173Y-117292642D01*
X95411730Y-117279891D01*
X95411732Y-117279888D01*
X95417115Y-117272705D01*
X95468245Y-117136316D01*
X95475000Y-117074134D01*
X95475000Y-116231553D01*
X95480668Y-116194188D01*
X95488090Y-116170285D01*
X95489804Y-116164766D01*
X95510000Y-115994126D01*
X95510000Y-114426000D01*
X95530002Y-114357879D01*
X95583658Y-114311386D01*
X95636000Y-114300000D01*
X98044000Y-114300000D01*
X98044000Y-105282500D01*
X98064002Y-105214379D01*
X98117658Y-105167886D01*
X98170000Y-105156500D01*
X117221500Y-105156500D01*
X117289621Y-105176502D01*
G37*
G04 #@! TD.AperFunction*
M02*
