G04 #@! TF.GenerationSoftware,KiCad,Pcbnew,(6.0.10)*
G04 #@! TF.CreationDate,2023-03-12T23:34:18-05:00*
G04 #@! TF.ProjectId,ReverseVoltageProtection_Breakout,52657665-7273-4655-966f-6c7461676550,rev?*
G04 #@! TF.SameCoordinates,Original*
G04 #@! TF.FileFunction,Copper,L2,Bot*
G04 #@! TF.FilePolarity,Positive*
%FSLAX46Y46*%
G04 Gerber Fmt 4.6, Leading zero omitted, Abs format (unit mm)*
G04 Created by KiCad (PCBNEW (6.0.10)) date 2023-03-12 23:34:18*
%MOMM*%
%LPD*%
G01*
G04 APERTURE LIST*
G04 #@! TA.AperFunction,ComponentPad*
%ADD10O,3.000000X5.100000*%
G04 #@! TD*
G04 APERTURE END LIST*
D10*
X114554000Y-117560000D03*
X114554000Y-109686000D03*
X87503000Y-117560000D03*
X87503000Y-109686000D03*
G04 #@! TA.AperFunction,Conductor*
G36*
X117289621Y-105176502D02*
G01*
X117336114Y-105230158D01*
X117347500Y-105282500D01*
X117347500Y-121793500D01*
X117327498Y-121861621D01*
X117273842Y-121908114D01*
X117221500Y-121919500D01*
X84962500Y-121919500D01*
X84894379Y-121899498D01*
X84847886Y-121845842D01*
X84836500Y-121793500D01*
X84836500Y-110806146D01*
X85494500Y-110806146D01*
X85509189Y-111016212D01*
X85567591Y-111290970D01*
X85663663Y-111554926D01*
X85795536Y-111802942D01*
X85798122Y-111806501D01*
X85798123Y-111806503D01*
X85880184Y-111919450D01*
X85960642Y-112030192D01*
X86155769Y-112232252D01*
X86377118Y-112405188D01*
X86380922Y-112407384D01*
X86380929Y-112407389D01*
X86578067Y-112521206D01*
X86620381Y-112545636D01*
X86880824Y-112650862D01*
X86885097Y-112651927D01*
X86885099Y-112651928D01*
X87149107Y-112717753D01*
X87149112Y-112717754D01*
X87153376Y-112718817D01*
X87157744Y-112719276D01*
X87157749Y-112719277D01*
X87428364Y-112747719D01*
X87428367Y-112747719D01*
X87432733Y-112748178D01*
X87437121Y-112748025D01*
X87437127Y-112748025D01*
X87709061Y-112738529D01*
X87709067Y-112738528D01*
X87713458Y-112738375D01*
X87717781Y-112737613D01*
X87717788Y-112737612D01*
X87893494Y-112706630D01*
X87990087Y-112689598D01*
X88257235Y-112602797D01*
X88261188Y-112600869D01*
X88261193Y-112600867D01*
X88374432Y-112545636D01*
X88509702Y-112479660D01*
X88513341Y-112477205D01*
X88513347Y-112477202D01*
X88624125Y-112402481D01*
X88742576Y-112322585D01*
X88951322Y-112134629D01*
X89131879Y-111919450D01*
X89280731Y-111681236D01*
X89394982Y-111424625D01*
X89472407Y-111154610D01*
X89511500Y-110876448D01*
X89511500Y-110806146D01*
X112545500Y-110806146D01*
X112560189Y-111016212D01*
X112618591Y-111290970D01*
X112714663Y-111554926D01*
X112846536Y-111802942D01*
X112849122Y-111806501D01*
X112849123Y-111806503D01*
X112931184Y-111919450D01*
X113011642Y-112030192D01*
X113206769Y-112232252D01*
X113428118Y-112405188D01*
X113431922Y-112407384D01*
X113431929Y-112407389D01*
X113629067Y-112521206D01*
X113671381Y-112545636D01*
X113931824Y-112650862D01*
X113936097Y-112651927D01*
X113936099Y-112651928D01*
X114200107Y-112717753D01*
X114200112Y-112717754D01*
X114204376Y-112718817D01*
X114208744Y-112719276D01*
X114208749Y-112719277D01*
X114479364Y-112747719D01*
X114479367Y-112747719D01*
X114483733Y-112748178D01*
X114488121Y-112748025D01*
X114488127Y-112748025D01*
X114760061Y-112738529D01*
X114760067Y-112738528D01*
X114764458Y-112738375D01*
X114768781Y-112737613D01*
X114768788Y-112737612D01*
X114944494Y-112706630D01*
X115041087Y-112689598D01*
X115308235Y-112602797D01*
X115312188Y-112600869D01*
X115312193Y-112600867D01*
X115425432Y-112545636D01*
X115560702Y-112479660D01*
X115564341Y-112477205D01*
X115564347Y-112477202D01*
X115675125Y-112402481D01*
X115793576Y-112322585D01*
X116002322Y-112134629D01*
X116182879Y-111919450D01*
X116331731Y-111681236D01*
X116445982Y-111424625D01*
X116523407Y-111154610D01*
X116562500Y-110876448D01*
X116562500Y-108565854D01*
X116547811Y-108355788D01*
X116489409Y-108081030D01*
X116393337Y-107817074D01*
X116261464Y-107569058D01*
X116179528Y-107456282D01*
X116098947Y-107345371D01*
X116098944Y-107345368D01*
X116096358Y-107341808D01*
X115901231Y-107139748D01*
X115679882Y-106966812D01*
X115676078Y-106964616D01*
X115676071Y-106964611D01*
X115440431Y-106828565D01*
X115436619Y-106826364D01*
X115176176Y-106721138D01*
X115171901Y-106720072D01*
X114907893Y-106654247D01*
X114907888Y-106654246D01*
X114903624Y-106653183D01*
X114899256Y-106652724D01*
X114899251Y-106652723D01*
X114628636Y-106624281D01*
X114628633Y-106624281D01*
X114624267Y-106623822D01*
X114619879Y-106623975D01*
X114619873Y-106623975D01*
X114347939Y-106633471D01*
X114347933Y-106633472D01*
X114343542Y-106633625D01*
X114339219Y-106634387D01*
X114339212Y-106634388D01*
X114163506Y-106665370D01*
X114066913Y-106682402D01*
X113799765Y-106769203D01*
X113795812Y-106771131D01*
X113795807Y-106771133D01*
X113685947Y-106824716D01*
X113547298Y-106892340D01*
X113543659Y-106894795D01*
X113543653Y-106894798D01*
X113440151Y-106964611D01*
X113314424Y-107049415D01*
X113105678Y-107237371D01*
X112925121Y-107452550D01*
X112776269Y-107690764D01*
X112662018Y-107947375D01*
X112584593Y-108217390D01*
X112545500Y-108495552D01*
X112545500Y-110806146D01*
X89511500Y-110806146D01*
X89511500Y-108565854D01*
X89496811Y-108355788D01*
X89438409Y-108081030D01*
X89342337Y-107817074D01*
X89210464Y-107569058D01*
X89128528Y-107456282D01*
X89047947Y-107345371D01*
X89047944Y-107345368D01*
X89045358Y-107341808D01*
X88850231Y-107139748D01*
X88628882Y-106966812D01*
X88625078Y-106964616D01*
X88625071Y-106964611D01*
X88389431Y-106828565D01*
X88385619Y-106826364D01*
X88125176Y-106721138D01*
X88120901Y-106720072D01*
X87856893Y-106654247D01*
X87856888Y-106654246D01*
X87852624Y-106653183D01*
X87848256Y-106652724D01*
X87848251Y-106652723D01*
X87577636Y-106624281D01*
X87577633Y-106624281D01*
X87573267Y-106623822D01*
X87568879Y-106623975D01*
X87568873Y-106623975D01*
X87296939Y-106633471D01*
X87296933Y-106633472D01*
X87292542Y-106633625D01*
X87288219Y-106634387D01*
X87288212Y-106634388D01*
X87112506Y-106665370D01*
X87015913Y-106682402D01*
X86748765Y-106769203D01*
X86744812Y-106771131D01*
X86744807Y-106771133D01*
X86634947Y-106824716D01*
X86496298Y-106892340D01*
X86492659Y-106894795D01*
X86492653Y-106894798D01*
X86389151Y-106964611D01*
X86263424Y-107049415D01*
X86054678Y-107237371D01*
X85874121Y-107452550D01*
X85725269Y-107690764D01*
X85611018Y-107947375D01*
X85533593Y-108217390D01*
X85494500Y-108495552D01*
X85494500Y-110806146D01*
X84836500Y-110806146D01*
X84836500Y-105282500D01*
X84856502Y-105214379D01*
X84910158Y-105167886D01*
X84962500Y-105156500D01*
X117221500Y-105156500D01*
X117289621Y-105176502D01*
G37*
G04 #@! TD.AperFunction*
M02*
